<?xml version="1.0" encoding="utf-8"?>
<!-- Generator: Adobe Illustrator 16.0.0, SVG Export Plug-In . SVG Version: 6.00 Build 0)  -->
<!DOCTYPE svg PUBLIC "-//W3C//DTD SVG 1.1//EN" "http://www.w3.org/Graphics/SVG/1.1/DTD/svg11.dtd">
<svg version="1.1" id="Layer_1" xmlns="http://www.w3.org/2000/svg" xmlns:xlink="http://www.w3.org/1999/xlink" x="0px" y="0px"
	 width="192px" height="192px" viewBox="0 0 192 192" enable-background="new 0 0 192 192" xml:space="preserve">
<g>
	<circle cx="96" cy="96" r="96"/>
	<g>
		<path fill="#FFFFFF" stroke="#000000" stroke-miterlimit="10" d="M41.53,96.733c-2.47-7.668,1.059-22.669,15.53-31.67
			c14.472-9.001,23.296-7,24.003-8.334s7.059-16.668,17.648-18.001c10.59-1.334,10.59-2,14.472-1.667c3.884,0.333,1.413,1,1.413,1
			s8.118-5.334,10.942-6c2.822-0.667,7.412-3.667,8.824,0c1.412,3.668,0.705,1.667-0.354,7.668c-1.058,6-5.294,15.667-8.822,21.335
			c-3.53,5.667-11.648,7.334-15.18,10.334c-3.527,3-4.588,6.334-5.294,8.334c-0.706,2,0,2.334,0.354,3.667
			c0.353,1.334,11.295,7.668,13.413,8.668c2.117,1,21.747,16.359,27.178,25.336c8.474,14.001,10.237,39.67,3.178,50.005
			c-5.097,7.458-9.885,12.001-20.826,17.334c-10.159,4.953-25.57,6.134-35.297,5.335c-16.236-1.333-32.979-1.534-40.238-12.002
			c-6.707-9.667-9.444-14.411-9.177-25.003c0.352-14.001,2.117-19,6-25.336c3.882-6.333,12.708-13.334,14.472-18.668
			c1.021-3.088-4.011-2.759-12.001-4.999C45.959,102.438,41.53,96.733,41.53,96.733z"/>
		<path stroke="#000000" stroke-miterlimit="10" d="M71.061,186.074c0,0-8.117-11.001-2.823-17.667
			c5.294-6.668,9.883-13.002,9.883-13.002s9.419,2.945,16.942,12.669c6.707,8.668,4.59,12.668,2.121,16.334
			c-1.632,2.42-6.002,6.002-8.826,5.335C85.534,189.075,73.179,189.743,71.061,186.074z"/>
		<path stroke="#000000" stroke-miterlimit="10" d="M49.473,84.065c0,0,0-5.667,3.882-6.334c3.884-0.667,6.707,1.334,6.707,1.334
			s1.765,1.667-1.765,4.333C54.768,86.066,51.237,84.732,49.473,84.065z"/>
	</g>
</g>
</svg>
